# xmcd
#
# Track frame offsets: 
#        150
#        24937
#        51628
#        71809
#        101933
#        125220
#        140961
#        166353
#        184215
#        214435
#        241317
#        266793
#        279892
#        295128
#        315378
#
# Disc length: 4530 seconds
#
# Revision: 3
# Processed by: cddbd v1.5.2PL0 Copyright (c) Steve Scherf et al.
# Submitted via: ExactAudioCopy v0.99pb4
#
DISCID=fa11b00f
DTITLE=Innes Sibun - Superstitious
DYEAR=1995
DGENRE=Blues Rock
TTITLE0=Come Back Crazy
TTITLE1=Judgement Day
TTITLE2=So Little Time
TTITLE3=I'll Be There
TTITLE4=Fishermans Wharf
TTITLE5=The Stealer
TTITLE6=Love and War
TTITLE7=Promises
TTITLE8=Obsession
TTITLE9=You Could Be Wrong
TTITLE10=Lonely Nights
TTITLE11=The Supernatural
TTITLE12=Take Me Home
TTITLE13=I'll Be There (edit)
TTITLE14=Rattlesnake Shake
EXTD=
EXTT0=
EXTT1=
EXTT2=
EXTT3=
EXTT4=
EXTT5=
EXTT6=
EXTT7=
EXTT8=
EXTT9=
EXTT10=
EXTT11=
EXTT12=
EXTT13=
EXTT14=
PLAYORDER=
